<mxfile host="app.diagrams.net" modified="2023-12-09T13:45:01.397Z" agent="Mozilla/5.0 (Windows NT 10.0; Win64; x64) AppleWebKit/537.36 (KHTML, like Gecko) Chrome/119.0.0.0 Safari/537.36" version="22.1.7" etag="RcXTGd9UW3oVzNQ9Biyb" type="github">
  <diagram name="Page-1" id="c7Ir5VeU3e_CZ_6TWw2Y">
    <mxGraphModel>
      <root>
        <mxCell id="0" />
        <mxCell id="1" parent="0" />
      </root>
    </mxGraphModel>
  </diagram>
</mxfile>
